solid Untitled-5e77bde1
facet normal -0.24056764093804567 2.991523295046011e-17 -0.9706323764090622
  outer loop
    vertex 3.719281462581178e-16 3.0 3.0
    vertex 12.10427602761877 1.0798900749732591e-16 0.0
    vertex 3.524958103184872e-16 1.6550142073913646e-16 3.0
  endloop
endfacet
facet normal -0.24056764093804567 2.991523295046011e-17 -0.9706323764090622
  outer loop
    vertex 12.10427602761877 1.0798900749732591e-16 0.0
    vertex 3.719281462581178e-16 3.0 3.0
    vertex 12.10427602761877 3.0 -6.835635008047072e-17
  endloop
endfacet
facet normal 1.0 -2.26373227312864e-17 -1.3335084134920092e-16
  outer loop
    vertex 3.524958103184872e-16 1.6550142073913646e-16 3.0
    vertex 2.8199664825478975e-15 -43.0 21.540970937771938
    vertex 6.405253022901171e-16 -43.0 20.732398298973145
  endloop
endfacet
facet normal 1.0 -2.26373227312864e-17 -1.3335084134920092e-16
  outer loop
    vertex 2.8199664825478975e-15 -43.0 21.540970937771938
    vertex 3.524958103184872e-16 1.6550142073913646e-16 3.0
    vertex 1.8750818798886193e-15 9.564676198401906e-17 15.428571428571427
  endloop
endfacet
facet normal -1.212443664645864e-16 1.0 -2.532143651212241e-16
  outer loop
    vertex 2.22590250100724e-16 -43.000000000000014 3.0
    vertex 36.0 -43.0 0.0
    vertex 12.10427602761877 -43.00000000000001 0.0
  endloop
endfacet
facet normal -1.212443664645864e-16 1.0 -2.532143651212241e-16
  outer loop
    vertex 36.0 -43.0 0.0
    vertex 2.22590250100724e-16 -43.000000000000014 3.0
    vertex 36.0 -43.0 21.571428571428573
  endloop
endfacet
facet normal -1.212443664645864e-16 1.0 -2.532143651212241e-16
  outer loop
    vertex 36.0 -43.0 21.571428571428573
    vertex 2.22590250100724e-16 -43.000000000000014 3.0
    vertex 6.405253022901171e-16 -43.0 20.732398298973145
  endloop
endfacet
facet normal -1.212443664645864e-16 1.0 -2.532143651212241e-16
  outer loop
    vertex 36.0 -43.0 21.571428571428573
    vertex 6.405253022901171e-16 -43.0 20.732398298973145
    vertex 2.8199664825478975e-15 -43.0 21.540970937771938
  endloop
endfacet
facet normal 0.00041879180011904395 -0.14107773125388035 -0.9899984335127435
  outer loop
    vertex 36.0 1.619021454369796e-16 15.428571428571427
    vertex 2.8199664825478975e-15 -43.0 21.540970937771938
    vertex 1.8750818798886193e-15 9.564676198401906e-17 15.428571428571427
  endloop
endfacet
facet normal 0.00041879180011904395 -0.14107773125388035 -0.9899984335127435
  outer loop
    vertex 2.8199664825478975e-15 -43.0 21.540970937771938
    vertex 36.0 1.619021454369796e-16 15.428571428571427
    vertex 36.0 -43.0 21.571428571428573
  endloop
endfacet
facet normal -1.1749860343949574e-16 2.847471373360326e-33 -1.0
  outer loop
    vertex 3.719281462581178e-16 3.0 3.0
    vertex -3.0 3.3385297810327704e-16 3.0
    vertex -3.0 3.0 3.0
  endloop
endfacet
facet normal -1.1749860343949574e-16 2.847471373360326e-33 -1.0
  outer loop
    vertex -3.0 3.3385297810327704e-16 3.0
    vertex 3.719281462581178e-16 3.0 3.0
    vertex 3.524958103184872e-16 1.6550142073913646e-16 3.0
  endloop
endfacet
facet normal 0.0 -1.0 0.0
  outer loop
    vertex 39.0 -46.00000000000001 25.0
    vertex 12.10427602761877 -46.00000000000001 0.0
    vertex 39.0 -46.00000000000001 0.0
  endloop
endfacet
facet normal 0.0 -1.0 0.0
  outer loop
    vertex 12.10427602761877 -46.00000000000001 0.0
    vertex 39.0 -46.00000000000001 25.0
    vertex 1.762479051592436e-16 -46.00000000000001 3.0
  endloop
endfacet
facet normal 0.0 -1.0 0.0
  outer loop
    vertex 1.762479051592436e-16 -46.00000000000001 3.0
    vertex 39.0 -46.00000000000001 25.0
    vertex 0.0 -46.00000000000001 21.969542366343365
  endloop
endfacet
facet normal 0.0 -1.0 0.0
  outer loop
    vertex 0.0 -46.00000000000001 21.969542366343365
    vertex 39.0 -46.00000000000001 25.0
    vertex -3.0 -46.00000000000001 21.969542366343365
  endloop
endfacet
facet normal 0.0 -1.0 0.0
  outer loop
    vertex -3.0 -46.00000000000001 21.969542366343365
    vertex 39.0 -46.00000000000001 25.0
    vertex -3.0 -46.00000000000001 25.0
  endloop
endfacet
facet normal 4.1504414739571094e-16 -0.3812371866094539 -0.9244772617788436
  outer loop
    vertex -3.0 3.3385297810327704e-16 3.0
    vertex 0.0 -46.00000000000001 21.969542366343365
    vertex -3.0 -46.00000000000001 21.969542366343365
  endloop
endfacet
facet normal 4.1504414739571094e-16 -0.3812371866094539 -0.9244772617788436
  outer loop
    vertex 0.0 -46.00000000000001 21.969542366343365
    vertex -3.0 3.3385297810327704e-16 3.0
    vertex 3.524958103184872e-16 1.6550142073913646e-16 3.0
  endloop
endfacet
facet normal 4.1504414739571094e-16 -0.3812371866094539 -0.9244772617788436
  outer loop
    vertex 0.0 -46.00000000000001 21.969542366343365
    vertex 3.524958103184872e-16 1.6550142073913646e-16 3.0
    vertex 6.405253022901171e-16 -43.0 20.732398298973145
  endloop
endfacet
facet normal -1.0 7.341049345793056e-17 1.5196220916791292e-16
  outer loop
    vertex -2.9999999999999973 3.0 18.0
    vertex -3.0 -46.00000000000001 21.969542366343365
    vertex -3.0 -46.00000000000001 25.0
  endloop
endfacet
facet normal -1.0 7.341049345793056e-17 1.5196220916791292e-16
  outer loop
    vertex -3.0 -46.00000000000001 21.969542366343365
    vertex -2.9999999999999973 3.0 18.0
    vertex -3.0 3.3385297810327704e-16 3.0
  endloop
endfacet
facet normal -1.0 7.341049345793056e-17 1.5196220916791292e-16
  outer loop
    vertex -3.0 3.3385297810327704e-16 3.0
    vertex -2.9999999999999973 3.0 18.0
    vertex -3.0 3.0 3.0
  endloop
endfacet
facet normal -0.24056764093804575 -6.814897698722462e-17 -0.9706323764090622
  outer loop
    vertex 2.22590250100724e-16 -43.000000000000014 3.0
    vertex 12.10427602761877 -46.00000000000001 0.0
    vertex 1.762479051592436e-16 -46.00000000000001 3.0
  endloop
endfacet
facet normal -0.24056764093804575 -6.814897698722462e-17 -0.9706323764090622
  outer loop
    vertex 12.10427602761877 -46.00000000000001 0.0
    vertex 2.22590250100724e-16 -43.000000000000014 3.0
    vertex 12.10427602761877 -43.00000000000001 0.0
  endloop
endfacet
facet normal -7.17801056295649e-19 0.14142135623730945 0.9899494936611667
  outer loop
    vertex 39.0 -46.00000000000001 25.0
    vertex -2.9999999999999973 3.0 18.0
    vertex -3.0 -46.00000000000001 25.0
  endloop
endfacet
facet normal -7.17801056295649e-19 0.14142135623730945 0.9899494936611667
  outer loop
    vertex -2.9999999999999973 3.0 18.0
    vertex 39.0 -46.00000000000001 25.0
    vertex 39.0 3.0 18.0
  endloop
endfacet
facet normal -1.0 1.1572180042428517e-16 6.032567678214548e-18
  outer loop
    vertex 6.405253022901171e-16 -43.0 20.732398298973145
    vertex 1.762479051592436e-16 -46.00000000000001 3.0
    vertex 0.0 -46.00000000000001 21.969542366343365
  endloop
endfacet
facet normal -1.0 1.1572180042428517e-16 6.032567678214548e-18
  outer loop
    vertex 1.762479051592436e-16 -46.00000000000001 3.0
    vertex 6.405253022901171e-16 -43.0 20.732398298973145
    vertex 2.22590250100724e-16 -43.000000000000014 3.0
  endloop
endfacet
facet normal 1.0 -0.0 -0.0
  outer loop
    vertex 39.0 3.0 0.0
    vertex 39.0 -46.00000000000001 25.0
    vertex 39.0 -46.00000000000001 0.0
  endloop
endfacet
facet normal 1.0 -0.0 -0.0
  outer loop
    vertex 39.0 -46.00000000000001 25.0
    vertex 39.0 3.0 0.0
    vertex 39.0 3.0 18.0
  endloop
endfacet
facet normal 6.55370858342866e-20 1.0 -5.696533503274356e-18
  outer loop
    vertex 3.719281462581178e-16 3.0 3.0
    vertex 39.0 3.0 0.0
    vertex 12.10427602761877 3.0 -6.835635008047072e-17
  endloop
endfacet
facet normal 6.55370858342866e-20 1.0 -5.696533503274356e-18
  outer loop
    vertex 39.0 3.0 0.0
    vertex 3.719281462581178e-16 3.0 3.0
    vertex 39.0 3.0 18.0
  endloop
endfacet
facet normal 6.55370858342866e-20 1.0 -5.696533503274356e-18
  outer loop
    vertex 39.0 3.0 18.0
    vertex 3.719281462581178e-16 3.0 3.0
    vertex -3.0 3.0 3.0
  endloop
endfacet
facet normal 6.55370858342866e-20 1.0 -5.696533503274356e-18
  outer loop
    vertex 39.0 3.0 18.0
    vertex -3.0 3.0 3.0
    vertex -2.9999999999999973 3.0 18.0
  endloop
endfacet
facet normal -1.0 0.0 0.0
  outer loop
    vertex 36.0 1.619021454369796e-16 15.428571428571427
    vertex 36.0 -43.0 0.0
    vertex 36.0 -43.0 21.571428571428573
  endloop
endfacet
facet normal -1.0 0.0 0.0
  outer loop
    vertex 36.0 -43.0 0.0
    vertex 36.0 1.619021454369796e-16 15.428571428571427
    vertex 36.0 0.0 0.0
  endloop
endfacet
facet normal -1.3218282189753937e-18 -1.0 3.344584512977888e-18
  outer loop
    vertex 36.0 1.619021454369796e-16 15.428571428571427
    vertex 12.10427602761877 1.0798900749732591e-16 0.0
    vertex 36.0 0.0 0.0
  endloop
endfacet
facet normal -1.3218282189753937e-18 -1.0 3.344584512977888e-18
  outer loop
    vertex 12.10427602761877 1.0798900749732591e-16 0.0
    vertex 36.0 1.619021454369796e-16 15.428571428571427
    vertex 3.524958103184872e-16 1.6550142073913646e-16 3.0
  endloop
endfacet
facet normal -1.3218282189753937e-18 -1.0 3.344584512977888e-18
  outer loop
    vertex 3.524958103184872e-16 1.6550142073913646e-16 3.0
    vertex 36.0 1.619021454369796e-16 15.428571428571427
    vertex 1.8750818798886193e-15 9.564676198401906e-17 15.428571428571427
  endloop
endfacet
facet normal 6.682493858110208e-19 -3.9405425340506646e-19 -1.0
  outer loop
    vertex 39.0 3.0 0.0
    vertex 12.10427602761877 1.0798900749732591e-16 0.0
    vertex 12.10427602761877 3.0 -6.835635008047072e-17
  endloop
endfacet
facet normal 6.682493858110208e-19 -3.9405425340506646e-19 -1.0
  outer loop
    vertex 12.10427602761877 1.0798900749732591e-16 0.0
    vertex 39.0 3.0 0.0
    vertex 36.0 0.0 0.0
  endloop
endfacet
facet normal 6.682493858110208e-19 -3.9405425340506646e-19 -1.0
  outer loop
    vertex 36.0 0.0 0.0
    vertex 39.0 3.0 0.0
    vertex 36.0 -43.0 0.0
  endloop
endfacet
facet normal 6.682493858110208e-19 -3.9405425340506646e-19 -1.0
  outer loop
    vertex 36.0 -43.0 0.0
    vertex 12.10427602761877 -46.00000000000001 0.0
    vertex 12.10427602761877 -43.00000000000001 0.0
  endloop
endfacet
facet normal 6.682493858110208e-19 -3.9405425340506646e-19 -1.0
  outer loop
    vertex 12.10427602761877 -46.00000000000001 0.0
    vertex 36.0 -43.0 0.0
    vertex 39.0 -46.00000000000001 0.0
  endloop
endfacet
facet normal 6.682493858110208e-19 -3.9405425340506646e-19 -1.0
  outer loop
    vertex 39.0 -46.00000000000001 0.0
    vertex 36.0 -43.0 0.0
    vertex 39.0 3.0 0.0
  endloop
endfacet
endsolid Untitled-5e77bde1
